<?xml version="1.0" encoding="UTF-8" standalone="no"?>
<svg width="50px" height="25px" viewBox="0 0 50 25" version="1.1" xmlns="http://www.w3.org/2000/svg" xmlns:xlink="http://www.w3.org/1999/xlink" xmlns:sketch="http://www.bohemiancoding.com/sketch/ns">
    <!-- Generator: Sketch 3.4.4 (17249) - http://www.bohemiancoding.com/sketch -->
    <title>Sprite2</title>
    <desc>Created with Sketch.</desc>
    <defs></defs>
    <g id="Page-1" stroke="none" stroke-width="1" fill="none" fill-rule="evenodd" sketch:type="MSPage">
        <g id="Sprite2" sketch:type="MSArtboardGroup">
            <path d="M37.4958496,15.0560178 C38.9052071,15.0560178 40.047717,13.9135079 40.047717,12.5041504 C40.047717,11.0947929 38.9052071,9.95228296 37.4958496,9.95228296 C36.0864921,9.95228296 34.9439822,11.0947929 34.9439822,12.5041504 C34.9439822,13.9135079 36.0864921,15.0560178 37.4958496,15.0560178 L37.4958496,15.0560178 Z M37.4958496,17.6078852 C34.6771347,17.6078852 32.3921148,15.3228653 32.3921148,12.5041504 C32.3921148,9.68543546 34.6771347,7.40041554 37.4958496,7.40041554 C40.3145645,7.40041554 42.5995845,9.68543546 42.5995845,12.5041504 C42.5995845,15.3228653 40.3145645,17.6078852 37.4958496,17.6078852 Z M36.7302894,0.765560228 L36.7302894,4.59336137 C36.7302894,5.01616861 37.0730424,5.3589216 37.4958496,5.3589216 C37.9186568,5.3589216 38.2614098,5.01616861 38.2614098,4.59336137 L38.2614098,0.765560228 C38.2614098,0.342752989 37.9186568,0 37.4958496,0 C37.0730424,0 36.7302894,0.342752989 36.7302894,0.765560228 Z M45.2549535,3.66238086 L42.5482893,6.369045 C42.2493195,6.66801487 42.2493195,7.15274079 42.5482893,7.45171066 C42.8472592,7.75068052 43.3319851,7.75068052 43.630955,7.45171066 L46.3376191,4.74504651 C46.636589,4.44607665 46.636589,3.96135072 46.3376191,3.66238086 C46.0386493,3.36341099 45.5539234,3.36341099 45.2549535,3.66238086 Z M49.2344398,11.7385902 L45.4066386,11.7385902 C44.9838314,11.7385902 44.6410784,12.0813432 44.6410784,12.5041504 C44.6410784,12.9269576 44.9838314,13.2697106 45.4066386,13.2697106 L49.2344398,13.2697106 C49.657247,13.2697106 50,12.9269576 50,12.5041504 C50,12.0813432 49.657247,11.7385902 49.2344398,11.7385902 Z M46.3376191,20.2632543 L43.630955,17.5565901 C43.3319851,17.2576203 42.8472592,17.2576203 42.5482893,17.5565901 C42.2493195,17.85556 42.2493195,18.3402859 42.5482893,18.6392558 L45.2549535,21.3459199 C45.5539234,21.6448898 46.0386493,21.6448898 46.3376191,21.3459199 C46.636589,21.0469501 46.636589,20.5622241 46.3376191,20.2632543 Z M38.2614098,24.2427406 L38.2614098,20.4149394 C38.2614098,19.9921322 37.9186568,19.6493792 37.4958496,19.6493792 C37.0730424,19.6493792 36.7302894,19.9921322 36.7302894,20.4149394 L36.7302894,24.2427406 C36.7302894,24.6655478 37.0730424,25.0083008 37.4958496,25.0083008 C37.9186568,25.0083008 38.2614098,24.6655478 38.2614098,24.2427406 Z M29.7367457,21.3459199 L32.4434099,18.6392558 C32.7423797,18.3402859 32.7423797,17.85556 32.4434099,17.5565901 C32.14444,17.2576203 31.6597141,17.2576203 31.3607442,17.5565901 L28.6540801,20.2632543 C28.3551102,20.5622241 28.3551102,21.0469501 28.6540801,21.3459199 C28.9530499,21.6448898 29.4377759,21.6448898 29.7367457,21.3459199 Z M25.7572594,13.2697106 L29.5850606,13.2697106 C30.0078678,13.2697106 30.3506208,12.9269576 30.3506208,12.5041504 C30.3506208,12.0813432 30.0078678,11.7385902 29.5850606,11.7385902 L25.7572594,11.7385902 C25.3344522,11.7385902 24.9916992,12.0813432 24.9916992,12.5041504 C24.9916992,12.9269576 25.3344522,13.2697106 25.7572594,13.2697106 Z M28.6540801,4.74504651 L31.3607442,7.45171066 C31.6597141,7.75068052 32.14444,7.75068052 32.4434099,7.45171066 C32.7423797,7.15274079 32.7423797,6.66801487 32.4434099,6.369045 L29.7367457,3.66238086 C29.4377759,3.36341099 28.9530499,3.36341099 28.6540801,3.66238086 C28.3551102,3.96135072 28.3551102,4.44607665 28.6540801,4.74504651 Z" id="Sun-Copy" fill="#D1D2DB" sketch:type="MSShapeGroup"></path>
            <path d="M18.5071426,21.2787367 L18.5071426,21.2787367 L18.5071433,21.2787365 C14.2498409,18.5834901 11.4232529,13.8321852 11.4232529,8.42069528 C11.4232529,6.51456953 11.7739498,4.69035343 12.4143406,3.00905009 C9.06673816,4.53241732 6.73933493,7.90658276 6.73933493,11.8243423 C6.73933493,17.1705124 11.073262,21.5044395 16.4194321,21.5044395 C17.1361991,21.5044395 17.8347709,21.4265369 18.5071426,21.2787367 L18.5071426,21.2787367 Z M18.9371801,23.2350602 L18.9371801,23.2350602 C18.115753,23.4156257 17.2728621,23.5074707 16.4194321,23.5074707 C9.96701845,23.5074707 4.73630371,18.276756 4.73630371,11.8243423 C4.73630371,7.19971447 7.44877384,3.06801608 11.5846997,1.18591267 C13.2138526,0.444546802 14.9232941,2.04933712 14.2861878,3.72201707 C13.7200873,5.20827623 13.4262841,6.79267305 13.4262841,8.42069528 C13.4262841,13.0029021 15.7768858,17.1795479 19.5785721,19.5863499 C21.0901055,20.5432833 20.6844452,22.8509778 18.9371801,23.2350602 L18.9371801,23.2350602 Z" id="Moon-Copy" fill="#979BAF" sketch:type="MSShapeGroup"></path>
        </g>
    </g>
</svg>